<?xml version="1.0" encoding="UTF-8"?>
<!-- Generated by Pixelmator Pro 3.7.1 -->
<svg width="1038" height="1041" viewBox="0 0 1038 1041" xmlns="http://www.w3.org/2000/svg">
    <linearGradient id="linearGradient1" x1="6.956926" y1="255.99544" x2="1031.956926" y2="255.99544" gradientUnits="userSpaceOnUse">
        <stop offset="0" stop-color="#20c4fe" stop-opacity="1"/>
        <stop offset="1" stop-color="#1cc0fd" stop-opacity="1"/>
    </linearGradient>
    <path id="Path-copy" fill="url(#linearGradient1)" stroke="none" d="M 9.997751 250.82251 C 155.762009 250.354858 831.563782 249.215942 1030.243164 250.833923 C 1033.368652 250.859375 1031.504761 260.764099 1030.243164 260.760315 C 959.281128 260.549622 71.042786 261.745667 9.997751 261.995422 C 5.62956 262.013245 6.269689 250.834473 9.997751 250.82251 Z"/>
    <linearGradient id="linearGradient2" x1="4.956926" y1="514.99544" x2="1029.956926" y2="514.99544" gradientUnits="userSpaceOnUse">
        <stop offset="0" stop-color="#23a6ff" stop-opacity="1"/>
        <stop offset="1" stop-color="#23a6ff" stop-opacity="1"/>
    </linearGradient>
    <path id="Path-copy-3" fill="url(#linearGradient2)" stroke="none" d="M 7.997751 509.82251 C 153.762009 509.354858 829.563782 508.215942 1028.243164 509.833923 C 1031.368652 509.859375 1029.504761 519.764099 1028.243164 519.760315 C 957.281128 519.549622 69.042786 520.745667 7.997751 520.995422 C 3.62956 521.013245 4.269689 509.834473 7.997751 509.82251 Z"/>
    <linearGradient id="linearGradient3" x1="4.956926" y1="770.99544" x2="1030.714999" y2="770.99544" gradientUnits="userSpaceOnUse">
        <stop offset="0" stop-color="#288eff" stop-opacity="1"/>
        <stop offset="1" stop-color="#298fff" stop-opacity="1"/>
    </linearGradient>
    <path id="Path-copy-4" fill="url(#linearGradient3)" stroke="none" d="M 8 765.82251 C 153.87207 765.354858 830.173645 764.215942 1029 765.833984 C 1032.127808 765.859375 1030.262451 775.764099 1029 775.760315 C 957.985474 775.549622 69.090187 776.745667 8 776.995422 C 3.628578 777.013184 4.269181 765.834473 8 765.82251 Z"/>
    <linearGradient id="linearGradient4" x1="765.894988" y1="518.922264" x2="-247.890428" y2="520.749661" gradientUnits="userSpaceOnUse" gradientTransform="matrix(-0 1 -1 -0 778.838242 260.833682)">
        <stop offset="0" stop-color="#3484fd" stop-opacity="1"/>
        <stop offset="1" stop-color="#33cff8" stop-opacity="1"/>
    </linearGradient>
    <path id="Path-copy-5" fill="url(#linearGradient4)" stroke="none" d="M 264.173248 10 C 264.640717 155.87207 265.779205 832.173645 264.161804 1031 C 264.136383 1034.127808 254.235443 1032.262451 254.239227 1031 C 254.449829 959.985474 253.254257 71.09021 253.004578 10 C 252.986786 5.62854 264.161285 6.269165 264.173248 10 Z"/>
    <linearGradient id="linearGradient5" x1="1026.897268" y1="520.921916" x2="13.111852" y2="522.750008" gradientUnits="userSpaceOnUse" gradientTransform="matrix(-0 1 -1 -0 1041.840522 1.831402)">
        <stop offset="0" stop-color="#3484fd" stop-opacity="1"/>
        <stop offset="1" stop-color="#22d1ff" stop-opacity="1"/>
    </linearGradient>
    <path id="Path-copy-8" fill="url(#linearGradient5)" stroke="none" d="M 525.17749 12 C 525.645142 157.87207 526.784058 834.173645 525.166077 1033 C 525.140625 1036.127808 515.235901 1034.262451 515.239685 1033 C 515.450378 961.985474 514.254333 73.09021 514.004578 12 C 513.986755 7.62854 525.165527 8.269165 525.17749 12 Z"/>
    <linearGradient id="linearGradient6" x1="1286.522656" y1="519.54288" x2="389.996104" y2="519.627708" gradientUnits="userSpaceOnUse" gradientTransform="matrix(-0 1 -1 -0 1300.461486 -259.547634)">
        <stop offset="0" stop-color="#3484fd" stop-opacity="1"/>
        <stop offset="1" stop-color="#22d1ff" stop-opacity="1"/>
    </linearGradient>
    <path id="Path-copy-7" fill="url(#linearGradient6)" stroke="none" d="M 785.17749 10.997803 C 785.645142 156.762024 786.784058 832.563782 785.166077 1031.243164 C 785.140625 1034.368652 775.235901 1032.504761 775.239685 1031.243164 C 775.450378 960.281128 774.254333 72.042786 774.004578 10.997803 C 773.986755 6.629517 785.165527 7.269653 785.17749 10.997803 Z"/>
</svg>
