<?xml version="1.0" encoding="UTF-8"?>
<!-- Generated by Pixelmator Pro 3.7.1 -->
<svg width="1024" height="1024" viewBox="0 0 1024 1024" xmlns="http://www.w3.org/2000/svg">
    <linearGradient id="linearGradient1" x1="-1.043074" y1="237.159829" x2="1024.714999" y2="237.159829" gradientUnits="userSpaceOnUse">
        <stop offset="0" stop-color="#20c4fe" stop-opacity="1"/>
        <stop offset="1" stop-color="#1cc0fd" stop-opacity="1"/>
    </linearGradient>
    <path id="Path-copy" fill="url(#linearGradient1)" stroke="none" d="M 2 232.990784 C 147.87207 232.613892 824.173645 231.695984 1022.999939 233 C 1026.127808 233.020508 1024.262451 241.003052 1022.999939 241 C 951.985474 240.8302 63.090187 241.794128 2 241.995422 C -2.371422 242.009766 -1.730819 233.000427 2 232.990784 Z"/>
    <linearGradient id="linearGradient2" x1="-7.043074" y1="508.159829" x2="1018.714999" y2="508.159829" gradientUnits="userSpaceOnUse">
        <stop offset="0" stop-color="#23a6ff" stop-opacity="1"/>
        <stop offset="1" stop-color="#23a6ff" stop-opacity="1"/>
    </linearGradient>
    <path id="Path-copy-3" fill="url(#linearGradient2)" stroke="none" d="M -4 503.990784 C 141.87207 503.613892 818.173645 502.695984 1016.999939 504 C 1020.127808 504.020508 1018.262451 512.003052 1016.999939 512 C 945.985474 511.8302 57.090187 512.794128 -4 512.995422 C -8.371422 513.009766 -7.730819 504.000427 -4 503.990784 Z"/>
    <linearGradient id="linearGradient3" x1="2.956926" y1="764.159829" x2="1028.714999" y2="764.159829" gradientUnits="userSpaceOnUse">
        <stop offset="0" stop-color="#288eff" stop-opacity="1"/>
        <stop offset="1" stop-color="#298fff" stop-opacity="1"/>
    </linearGradient>
    <path id="Path-copy-4" fill="url(#linearGradient3)" stroke="none" d="M 6 759.990784 C 151.87207 759.613892 828.173645 758.695984 1027 760 C 1030.127808 760.020508 1028.262451 768.003052 1027 768 C 955.985474 767.8302 67.090187 768.794128 6 768.995422 C 1.628578 769.009766 2.269181 760.000427 6 759.990784 Z"/>
    <linearGradient id="linearGradient4" x1="762.732879" y1="511.099301" x2="-251.052537" y2="512.572624" gradientUnits="userSpaceOnUse" gradientTransform="matrix(-0 1 -1 -0 767.676133 255.995792)">
        <stop offset="0" stop-color="#2c80ff" stop-opacity="1"/>
        <stop offset="1" stop-color="#22d1ff" stop-opacity="1"/>
    </linearGradient>
    <path id="Path-copy-5" fill="url(#linearGradient4)" stroke="none" d="M 260.009216 2 C 260.386108 147.87207 261.304016 824.173645 260 1022.999939 C 259.979492 1026.127808 251.996948 1024.262451 252 1022.999939 C 252.1698 951.985474 251.205872 63.09021 251.004578 2 C 250.990234 -2.37146 259.999573 -1.730835 260.009216 2 Z"/>
    <linearGradient id="linearGradient5" x1="1023.732879" y1="513.099301" x2="9.947463" y2="514.572624" gradientUnits="userSpaceOnUse" gradientTransform="matrix(-0 1 -1 -0 1030.676133 -3.004208)">
        <stop offset="0" stop-color="#2c80ff" stop-opacity="1"/>
        <stop offset="1" stop-color="#22d1ff" stop-opacity="1"/>
    </linearGradient>
    <path id="Path-copy-8" fill="url(#linearGradient5)" stroke="none" d="M 521.009216 4 C 521.386108 149.87207 522.304016 826.173645 521 1025 C 520.979492 1028.127808 512.996948 1026.262451 513 1025 C 513.1698 953.985474 512.205872 65.09021 512.004578 4 C 511.990234 -0.37146 520.999573 0.269165 521.009216 4 Z"/>
    <linearGradient id="linearGradient6" x1="1283.732879" y1="512.099301" x2="269.947463" y2="513.572624" gradientUnits="userSpaceOnUse" gradientTransform="matrix(-0 1 -1 -0 1289.676133 -264.004208)">
        <stop offset="0" stop-color="#2c80ff" stop-opacity="1"/>
        <stop offset="1" stop-color="#22d1ff" stop-opacity="1"/>
    </linearGradient>
    <path id="Path-copy-6" fill="url(#linearGradient6)" stroke="none" d="M 781.009216 3 C 781.386108 148.87207 782.304016 825.173645 781 1023.999939 C 780.979492 1027.127808 772.996948 1025.262451 773 1023.999939 C 773.1698 952.985474 772.205872 64.09021 772.004578 3 C 771.990234 -1.37146 780.999573 -0.730835 781.009216 3 Z"/>
</svg>
